# xmcd
#
# Track frame offsets:
#	150
#	9729
#	22393
#	35026
#	48518
#	61275
#	74251
#	86774
#	96975
#	106250
#	116172
#	134144
#	148034
#	163740
#	173419
#	191122
#	202057
#	216421
#	229242
#	243198
#
# Disc length: 3418
#
# Revision: 1
# Processed by: cddbd v1.5.1PL0 Copyright (c) Steve Scherf et al.
# Submitted via: ExactAudioCopy v0.90b3
# Normalized: r0:DSETVAR2,TDELIM( - )
#
DISCID=390d5814
DTITLE=Various Artist - Global Roots: Chess Blues [CD2]
DYEAR=2003
DGENRE=Blues
TTITLE0=Jessie Hill - My Children, My Children
TTITLE1=Little Milton - One Of These Old Days
TTITLE2=Muddy Waters - Five Long Years
TTITLE3=John Lee Hooker - Ground Hog Blues
TTITLE4=Little Walter - Off The Wall
TTITLE5=Howlin' Wold - Back Door Man
TTITLE6=Jimmy Rogers - Going Away Baby
TTITLE7=Jimmy Nelson - Tell Me Who
TTITLE8=Lowell Fulson - Love Grows Cold
TTITLE9=Billy Emerson - Hold Mackeral Baby
TTITLE10=Eddie Bo - You're With Me
TTITLE11=Little Miss Cornshucks - It Do Me No Good
TTITLE12=Big Maybelle - Maybelle Sings The Blues
TTITLE13=Koko Talyor - Tell Me The Truth
TTITLE14=Sugar Pie Desanto - Mybve You'll Be There
TTITLE15=Otis Rush - I'm Satisfied
TTITLE16=Buddy Guy - Broken Hearted Blues
TTITLE17=Chuck Berry - Drifiting Heart
TTITLE18=Eddie Boyd - Cool Kind Treatment
TTITLE19=Sonny BOy Williamson - Let Me Explain
EXTD=
EXTT0=
EXTT1=
EXTT2=
EXTT3=
EXTT4=
EXTT5=
EXTT6=
EXTT7=
EXTT8=
EXTT9=
EXTT10=
EXTT11=
EXTT12=
EXTT13=
EXTT14=
EXTT15=
EXTT16=
EXTT17=
EXTT18=
EXTT19=
PLAYORDER=
